<svg width="405" height="75" viewBox="0 0 405 75" fill="none" xmlns="http://www.w3.org/2000/svg">
<path d="M366.066 18.0135C366.066 17.3962 368.354 17.0875 372.929 17.0875C377.555 17.0875 379.943 17.3681 380.094 17.9293L385.523 37.7946L390.727 17.7609C390.928 17.312 392.487 17.0875 395.403 17.0875C402.09 17.0875 405.282 17.4523 404.981 18.1818L387.258 74.4949C387.208 74.8316 385.825 75 383.11 75C380.446 75 377.957 74.8878 375.644 74.6633C373.331 74.4949 372.225 74.2705 372.326 73.9899L378.887 56.3131L366.066 18.0135Z" fill="#19B1DB"/>
<path d="M360.536 57.4073C357.369 59.4836 353.296 60.5218 348.319 60.5218C343.342 60.5218 339.143 58.6419 335.725 54.8821C332.306 51.0661 330.596 45.8192 330.596 39.1413C330.596 32.4073 332.23 26.992 335.498 22.8955C338.817 18.799 342.99 16.7507 348.017 16.7507C353.045 16.7507 356.916 18.1817 359.631 21.0437C362.396 23.9056 363.779 27.3849 363.779 31.4814C363.779 40.5723 359.103 45.1177 349.752 45.1177H344.548C344.548 46.8012 344.95 47.9797 345.755 48.6531C346.61 49.2704 347.841 49.579 349.45 49.579C352.97 49.579 356.313 48.6812 359.48 46.8854C359.531 46.8293 359.757 47.2221 360.159 48.0639C361.366 50.4769 361.969 52.5252 361.969 54.2087C361.969 55.836 361.491 56.9023 360.536 57.4073ZM351.109 33.0807C351.109 30.7238 350.079 29.5454 348.017 29.5454C347.062 29.5454 346.233 29.882 345.529 30.5555C344.875 31.1727 344.548 32.0987 344.548 33.3332V35.9427H348.621C350.28 35.9427 351.109 34.9887 351.109 33.0807Z" fill="#19B1DB"/>
<path d="M306.254 59.175C306.254 59.5678 304.444 59.7642 300.824 59.7642C295.796 59.5959 293.282 59.2872 293.282 58.8383V31.5655H291.322C290.014 31.5655 289.16 30.331 288.758 27.8618C288.657 27.1323 288.607 26.4028 288.607 25.6733C288.607 23.9337 288.908 22.1941 289.512 20.4544C290.417 17.9853 291.824 16.7507 293.735 16.7507C295.645 16.7507 297.355 17.2558 298.863 18.2659C300.371 19.276 301.377 20.2861 301.88 21.2962C305.047 18.2659 308.818 16.7507 313.192 16.7507C317.566 16.7507 320.733 18.0695 322.694 20.707C324.655 23.3445 325.635 27.6654 325.635 33.6699V58.9225C325.635 59.5959 323.474 59.9326 319.15 59.9326C314.876 59.9326 312.74 59.5959 312.74 58.9225V34.5959C312.74 31.79 311.86 30.3871 310.1 30.3871C309.597 30.3871 308.893 30.6396 307.988 31.1447C307.083 31.5936 306.505 31.9303 306.254 32.1548V59.175Z" fill="#19B1DB"/>
<path d="M277.107 59.5959C277.107 59.9887 274.82 60.1851 270.244 60.1851C265.669 60.0729 263.382 59.8484 263.382 59.5117V31.5656H261.345C260.541 31.5656 259.887 31.0324 259.385 29.9662C258.932 28.8439 258.706 27.469 258.706 25.8416C258.706 19.781 260.315 16.7507 263.532 16.7507C265.795 16.7507 267.68 17.5364 269.189 19.1076C270.697 20.6228 271.451 22.3624 271.451 24.3265C272.507 22.0257 273.915 20.2019 275.674 18.8551C277.484 17.4522 279.319 16.7507 281.18 16.7507C284.096 16.7507 285.855 17.5925 286.459 19.276C286.609 19.7249 286.685 20.3983 286.685 21.2962C286.685 22.1379 286.434 23.6812 285.931 25.9258C285.478 28.1705 285.001 29.7979 284.498 30.808C283.995 31.8181 283.693 32.3231 283.593 32.3231C283.492 32.3231 283.015 32.1267 282.16 31.7339C281.356 31.285 280.627 31.0605 279.973 31.0605C278.062 31.0605 277.107 32.744 277.107 36.111V59.5959Z" fill="#19B1DB"/>
<path d="M219.193 18.0976C219.193 17.4803 221.355 17.1717 225.678 17.1717C230.002 17.1717 232.164 17.4803 232.164 18.0976V42.6767C232.164 45.4826 232.968 46.8855 234.577 46.8855C235.784 46.8855 237.141 46.2963 238.65 45.1178V18.0976C238.65 17.5365 240.786 17.2559 245.06 17.2559C249.334 17.2559 251.47 17.5365 251.47 18.0976V45.7071H253.431C255.14 45.7071 255.995 47.5308 255.995 51.1784C255.995 53.0303 255.643 54.9102 254.939 56.8182C253.934 59.2873 252.576 60.5219 250.867 60.5219C247.498 60.5219 245.01 58.9787 243.401 55.8922L243.325 55.9764C240.259 59.0067 236.965 60.5219 233.446 60.5219C228.569 60.5219 224.974 59.1751 222.662 56.4815C220.349 53.7317 219.193 49.2143 219.193 42.9293V18.0976Z" fill="#19B1DB"/>
<path d="M184.148 54.7137C181.03 50.8416 179.472 45.4825 179.472 38.6363C179.472 31.79 181.03 26.4309 184.148 22.5588C187.315 18.6868 191.563 16.7507 196.893 16.7507C202.222 16.7507 206.445 18.6868 209.562 22.5588C212.68 26.4309 214.238 31.79 214.238 38.6363C214.238 45.4825 212.68 50.8416 209.562 54.7137C206.445 58.5858 202.222 60.5218 196.893 60.5218C191.563 60.5218 187.315 58.5858 184.148 54.7137ZM196.893 30.808C194.077 30.808 192.669 33.3893 192.669 38.5521C192.669 43.7148 194.077 46.2962 196.893 46.2962C199.758 46.2962 201.191 43.7148 201.191 38.5521C201.191 33.3893 199.758 30.808 196.893 30.808Z" fill="#19B1DB"/>
<path d="M143.354 52.1044C143.354 50.477 143.782 48.5971 144.637 46.4646C145.491 44.2761 146.421 42.789 147.427 42.0033C149.337 43.5746 151.273 44.3602 153.234 44.3602L155.572 43.9394C158.287 43.0415 159.694 40.6285 159.795 36.7003V15.2357H153.762C152.907 15.2357 152.304 14.0291 151.952 11.6161C151.801 10.4377 151.726 9.23117 151.726 7.9966C151.726 6.76203 151.801 5.55552 151.952 4.37707C152.304 1.96405 152.907 0.757538 153.762 0.757538H171.711C172.716 0.757538 173.47 1.09424 173.973 1.76764C174.476 2.38492 174.727 3.1425 174.727 4.04037V43.771C174.727 49.2704 173.068 53.4512 169.75 56.3131C166.482 59.1751 162.535 60.606 157.91 60.606C153.334 60.606 149.765 59.8485 147.201 58.3333C144.637 56.8182 143.354 54.7418 143.354 52.1044Z" fill="#19B1DB"/>
<path d="M123.686 57.4073C120.518 59.4836 116.446 60.5218 111.469 60.5218C106.491 60.5218 102.293 58.6419 98.8743 54.8821C95.4555 51.0661 93.7461 45.8192 93.7461 39.1413C93.7461 32.4073 95.3801 26.992 98.6481 22.8955C101.966 18.799 106.139 16.7507 111.167 16.7507C116.195 16.7507 120.066 18.1817 122.781 21.0437C125.546 23.9056 126.929 27.3849 126.929 31.4814C126.929 40.5723 122.253 45.1177 112.902 45.1177H107.698C107.698 46.8012 108.1 47.9797 108.905 48.6531C109.759 49.2704 110.991 49.579 112.6 49.579C116.119 49.579 119.463 48.6812 122.63 46.8854C122.68 46.8293 122.907 47.2221 123.309 48.0639C124.515 50.4769 125.119 52.5252 125.119 54.2087C125.119 55.836 124.641 56.9023 123.686 57.4073ZM114.259 33.0807C114.259 30.7238 113.228 29.5454 111.167 29.5454C110.212 29.5454 109.382 29.882 108.678 30.5555C108.025 31.1727 107.698 32.0987 107.698 33.3332V35.9427H111.77C113.429 35.9427 114.259 34.9887 114.259 33.0807Z" fill="#19B1DB"/>
<path d="M69.4036 59.175C69.4036 59.5678 67.5936 59.7642 63.9737 59.7642C58.946 59.5959 56.4322 59.2872 56.4322 58.8383V31.5655H54.4714C53.1642 31.5655 52.3095 30.331 51.9073 27.8618C51.8067 27.1323 51.7565 26.4028 51.7565 25.6733C51.7565 23.9337 52.0581 22.1941 52.6615 20.4544C53.5664 17.9853 54.9742 16.7507 56.8847 16.7507C58.7952 16.7507 60.5046 17.2558 62.0129 18.2659C63.5212 19.276 64.5267 20.2861 65.0295 21.2962C68.1969 18.2659 71.9677 16.7507 76.3418 16.7507C80.7158 16.7507 83.8833 18.0695 85.8441 20.707C87.8049 23.3445 88.7852 27.6654 88.7852 33.6699V58.9225C88.7852 59.5959 86.6233 59.9326 82.2996 59.9326C78.026 59.9326 75.8893 59.5959 75.8893 58.9225V34.5959C75.8893 31.79 75.0094 30.3871 73.2498 30.3871C72.747 30.3871 72.0431 30.6396 71.1381 31.1447C70.2332 31.5936 69.655 31.9303 69.4036 32.1548V59.175Z" fill="#19B1DB"/>
<path d="M23.9066 60.5219C16.8678 60.5219 11.1111 57.9405 6.63652 52.7778C2.21217 47.6151 0 40.0954 0 30.2189C0 20.2862 2.23731 12.7666 6.71194 7.65994C11.2368 2.55331 17.0438 0 24.1328 0C31.2721 0 37.0288 2.52526 41.4029 7.57576C45.7769 12.5702 47.964 20.174 47.964 30.3872C47.964 40.5443 45.7266 48.1201 41.252 53.1145C36.7774 58.0528 30.9956 60.5219 23.9066 60.5219ZM23.982 16.1616C21.5687 16.1616 19.5325 17.3962 17.8734 19.8653C16.2645 22.3345 15.4601 25.8137 15.4601 30.303C15.4601 34.7363 16.2394 38.1594 17.7979 40.5724C19.3565 42.9293 21.3927 44.1078 23.9066 44.1078C26.4707 44.1078 28.532 42.9012 30.0906 40.4882C31.6995 38.0752 32.5039 34.624 32.5039 30.1347C32.5039 25.6453 31.6743 22.1942 30.0152 19.7811C28.4063 17.3681 26.3953 16.1616 23.982 16.1616Z" fill="#19B1DB"/>
</svg>
